<!--?xml version="1.0" encoding="utf-8"?-->
<!-- Generator: Adobe Illustrator 18.0.0, SVG Export Plug-In . SVG Version: 6.00 Build 0)  -->

<svg version="1.1" id="_x31_0" xmlns="http://www.w3.org/2000/svg" xmlns:xlink="http://www.w3.org/1999/xlink" x="0px" y="0px" viewBox="0 0 512 512" style="width: 64px; height: 64px; opacity: 1;" xml:space="preserve">
<style type="text/css">
	.st0{fill:#374149;}
</style>
<g>
	<path class="st0" d="M256.371,0C114.985-0.203,0.207,114.242,0,255.629C-0.203,397.015,114.242,511.793,255.629,512
		C397.011,512.203,511.797,397.758,512,256.371C512.206,114.985,397.754,0.207,256.371,0z M448,256.278
		C447.847,362.145,361.59,448.152,255.722,448C149.852,447.847,63.848,361.59,64,255.722C64.157,149.855,150.406,63.848,256.282,64
		C362.148,64.153,448.152,150.41,448,256.278z" style="fill: rgb(75, 75, 75);"></path>
	<path class="st0" d="M137.95,290.738l235.999,0.343c5.52,0.008,10.008-4.461,10.016-9.984l0.07-49.82
		c0.008-5.524-4.465-10.008-9.985-10.016l-13.273-0.019l-222.726-0.321c-5.524-0.007-10.004,4.462-10.016,9.985l-0.07,49.816
		C127.957,286.246,132.426,290.73,137.95,290.738z" style="fill: rgb(75, 75, 75);"></path>
</g>
</svg>
